<svg width="50" height="50" viewBox="0 0 50 50" fill="none" xmlns="http://www.w3.org/2000/svg">
<path d="M35.4348 45.633H11.585C7.60505 45.633 4.367 42.3586 4.367 38.3339C4.367 34.3092 7.60505 31.0348 11.585 31.0348H20.6472C21.6624 31.0348 22.4882 30.1997 22.4882 29.1731V27.9196C22.4882 27.4251 22.8847 27.0241 23.3737 27.0241H27.048C27.537 27.0241 27.9335 27.4251 27.9335 27.9196V28.7455C27.9335 32.7601 24.7033 36.0267 20.7332 36.0267H11.9145C10.6632 36.0267 9.64499 37.0192 9.64499 38.2395C9.64499 39.4598 10.6632 40.4523 11.9145 40.4523H35.1667C36.2645 40.4523 37.1573 39.5494 37.1573 38.4393V36.2969C37.1573 35.8024 37.5538 35.4014 38.0429 35.4014C38.5319 35.4014 38.9283 35.8024 38.9283 36.2969V38.4393C38.9283 40.5367 37.2408 42.2432 35.1667 42.2432H11.9145C9.6865 42.2432 7.87399 40.447 7.87399 38.2395C7.87399 36.0319 9.6865 34.2358 11.9145 34.2358H20.7332C23.704 34.2358 26.1249 31.8105 26.1621 28.815H24.2592V29.1731C24.2592 31.187 22.6387 32.8257 20.6472 32.8257H11.585C8.58135 32.8257 6.13801 35.2965 6.13801 38.3339C6.13801 41.3713 8.58135 43.8421 11.585 43.8421H35.4348C38.3849 43.8421 40.5515 41.4885 40.5856 38.2456L40.6055 36.1539C40.6103 35.6624 41.0059 35.2672 41.491 35.2672C41.4936 35.2672 41.4967 35.2672 41.4997 35.2672C41.9887 35.272 42.3813 35.6769 42.3765 36.1714L42.3566 38.264C42.3121 42.4653 39.3365 45.633 35.4348 45.633Z" fill="black"/>
<path d="M35.4214 38.4791C35.1325 38.4791 34.8493 38.3365 34.6794 38.0738C34.0278 37.0664 33.6927 35.8955 33.7104 34.6879C33.7589 31.3942 36.424 28.7486 39.6703 28.7486C39.7001 28.7486 39.73 28.7486 39.7598 28.749C43.0471 28.7988 45.6816 31.5429 45.6323 34.8667C45.6154 36.0022 45.2855 37.1035 44.6776 38.0519C44.4108 38.4668 43.8617 38.5844 43.4527 38.3164C43.0424 38.0471 42.9252 37.4927 43.1911 37.0778C43.6179 36.4123 43.8496 35.6384 43.8613 34.84C43.8781 33.708 43.4579 32.6377 42.6783 31.8253C41.8987 31.0134 40.8528 30.5565 39.7334 30.5399C37.4487 30.501 35.5156 32.378 35.4814 34.7141C35.4689 35.5636 35.7041 36.3861 36.1616 37.0935C36.4292 37.5075 36.3146 38.0624 35.9052 38.333C35.7556 38.4318 35.5874 38.4791 35.4214 38.4791Z" fill="#5AB5FF"/>
<path d="M39.685 37.7301C37.9983 37.7301 36.626 36.3423 36.626 34.6367C36.626 32.9311 37.9983 31.5433 39.685 31.5433C41.3717 31.5433 42.7441 32.9311 42.7441 34.6367C42.7441 36.3423 41.3717 37.7301 39.685 37.7301ZM39.685 33.3342C38.9746 33.3342 38.397 33.9184 38.397 34.6367C38.397 35.3551 38.9746 35.9392 39.685 35.9392C40.3954 35.9392 40.9731 35.3551 40.9731 34.6367C40.9731 33.9184 40.3954 33.3342 39.685 33.3342ZM27.0489 28.7735H23.3737C22.8847 28.7735 22.4882 28.3726 22.4882 27.8781V24.2727C22.4882 23.7782 22.8847 23.3772 23.3737 23.3772C23.8627 23.3772 24.2592 23.7782 24.2592 24.2727V26.9826H26.1634V24.2727C26.1634 23.7782 26.5599 23.3772 27.0489 23.3772C27.5379 23.3772 27.9344 23.7782 27.9344 24.2727V27.8781C27.9344 28.3726 27.5379 28.7735 27.0489 28.7735Z" fill="#5AB5FF"/>
<path d="M33.1942 25.0995H27.0489C26.5599 25.0995 26.1634 24.6985 26.1634 24.204C26.1634 23.7095 26.5599 23.3086 27.0489 23.3086H32.3087V21.3835H17.8039V23.3086H23.3737C23.8628 23.3086 24.2592 23.7095 24.2592 24.204C24.2592 24.6985 23.8628 25.0995 23.3737 25.0995H16.9184C16.4294 25.0995 16.0329 24.6985 16.0329 24.204V20.488C16.0329 19.9935 16.4294 19.5926 16.9184 19.5926H33.1942C33.6833 19.5926 34.0797 19.9935 34.0797 20.488V24.204C34.0797 24.6985 33.6833 25.0995 33.1942 25.0995Z" fill="#5AB5FF"/>
<path d="M33.9025 23.2413C33.4135 23.2413 33.017 22.8403 33.017 22.3458C33.017 21.8513 33.4135 21.4504 33.9025 21.4504C37.0151 21.4504 39.5475 18.8895 39.5475 15.7419V8.44854H37.0934C36.6044 8.44854 36.2079 8.0476 36.2079 7.5531C36.2079 7.05859 36.6044 6.65765 37.0934 6.65765H40.433C40.9221 6.65765 41.3185 7.05859 41.3185 7.5531V15.7419C41.3185 19.8772 37.9919 23.2413 33.9025 23.2413Z" fill="black"/>
<path d="M34.0983 11.1029C32.262 11.1029 30.7677 9.59188 30.7677 7.73497C30.7677 5.87806 32.262 4.367 34.0983 4.367C35.9346 4.367 37.4289 5.87806 37.4289 7.73497C37.4289 9.59188 35.9346 11.1029 34.0983 11.1029ZM34.0983 6.15789C33.2383 6.15789 32.5387 6.86532 32.5387 7.73497C32.5387 8.60461 33.2383 9.31205 34.0983 9.31205C34.9583 9.31205 35.6579 8.60461 35.6579 7.73497C35.6579 6.86532 34.9583 6.15789 34.0983 6.15789ZM16.1072 11.1029C14.271 11.1029 12.7767 9.59188 12.7767 7.73497C12.7767 5.87806 14.271 4.367 16.1072 4.367C17.9435 4.367 19.4378 5.87806 19.4378 7.73497C19.4378 9.59188 17.9435 11.1029 16.1072 11.1029ZM16.1072 6.15789C15.2473 6.15789 14.5477 6.86532 14.5477 7.73497C14.5477 8.60461 15.2473 9.31205 16.1072 9.31205C16.9672 9.31205 17.6668 8.60461 17.6668 7.73497C17.6668 6.86532 16.9672 6.15789 16.1072 6.15789Z" fill="#5AB5FF"/>
<path d="M16.8388 23.2413C12.7494 23.2413 9.42273 19.8772 9.42273 15.7419V7.5531C9.42273 7.05859 9.81922 6.65765 10.3082 6.65765H13.6479C14.1369 6.65765 14.5334 7.05859 14.5334 7.5531C14.5334 8.0476 14.1369 8.44854 13.6479 8.44854H11.1937V15.7419C11.1937 18.8895 13.7261 21.4504 16.8388 21.4504C17.3278 21.4504 17.7243 21.8513 17.7243 22.3458C17.7243 22.8403 17.3278 23.2413 16.8388 23.2413Z" fill="black"/>
</svg>
