<svg width="193" height="50" viewBox="0 0 193 50" fill="none" xmlns="http://www.w3.org/2000/svg">
<path d="M35.4348 45.633H11.585C7.60505 45.633 4.367 42.3586 4.367 38.3339C4.367 34.3092 7.60505 31.0348 11.585 31.0348H20.6472C21.6624 31.0348 22.4882 30.1997 22.4882 29.1731V27.9196C22.4882 27.4251 22.8847 27.0241 23.3737 27.0241H27.048C27.537 27.0241 27.9335 27.4251 27.9335 27.9196V28.7455C27.9335 32.7601 24.7033 36.0267 20.7332 36.0267H11.9145C10.6632 36.0267 9.64499 37.0192 9.64499 38.2395C9.64499 39.4598 10.6632 40.4523 11.9145 40.4523H35.1667C36.2645 40.4523 37.1573 39.5494 37.1573 38.4393V36.2969C37.1573 35.8024 37.5538 35.4014 38.0429 35.4014C38.5319 35.4014 38.9283 35.8024 38.9283 36.2969V38.4393C38.9283 40.5367 37.2408 42.2432 35.1667 42.2432H11.9145C9.6865 42.2432 7.87399 40.447 7.87399 38.2395C7.87399 36.0319 9.6865 34.2358 11.9145 34.2358H20.7332C23.704 34.2358 26.1249 31.8105 26.1621 28.815H24.2592V29.1731C24.2592 31.187 22.6387 32.8257 20.6472 32.8257H11.585C8.58135 32.8257 6.13801 35.2965 6.13801 38.3339C6.13801 41.3713 8.58135 43.8421 11.585 43.8421H35.4348C38.3849 43.8421 40.5515 41.4885 40.5856 38.2456L40.6055 36.1539C40.6103 35.6624 41.0059 35.2672 41.491 35.2672C41.4936 35.2672 41.4967 35.2672 41.4997 35.2672C41.9887 35.272 42.3813 35.6769 42.3765 36.1714L42.3566 38.264C42.3121 42.4653 39.3365 45.633 35.4348 45.633Z" fill="black"/>
<path d="M35.4213 38.4791C35.1325 38.4791 34.8493 38.3365 34.6794 38.0738C34.0278 37.0664 33.6927 35.8955 33.7104 34.6879C33.7589 31.3942 36.424 28.7486 39.6703 28.7486C39.7001 28.7486 39.73 28.7486 39.7598 28.749C43.0471 28.7988 45.6816 31.5429 45.6323 34.8667C45.6154 36.0022 45.2855 37.1035 44.6776 38.0519C44.4108 38.4668 43.8617 38.5844 43.4527 38.3164C43.0424 38.0471 42.9252 37.4927 43.1911 37.0778C43.6179 36.4123 43.8496 35.6384 43.8613 34.84C43.8781 33.708 43.4579 32.6377 42.6783 31.8253C41.8987 31.0134 40.8528 30.5565 39.7334 30.5399C37.4487 30.501 35.5156 32.378 35.4814 34.7141C35.4689 35.5636 35.7041 36.3861 36.1616 37.0935C36.4292 37.5075 36.3146 38.0624 35.9052 38.333C35.7556 38.4318 35.5874 38.4791 35.4213 38.4791Z" fill="#5AB5FF"/>
<path d="M39.685 37.7301C37.9983 37.7301 36.626 36.3423 36.626 34.6367C36.626 32.9311 37.9983 31.5433 39.685 31.5433C41.3717 31.5433 42.7441 32.9311 42.7441 34.6367C42.7441 36.3423 41.3717 37.7301 39.685 37.7301ZM39.685 33.3342C38.9746 33.3342 38.397 33.9183 38.397 34.6367C38.397 35.3551 38.9746 35.9392 39.685 35.9392C40.3954 35.9392 40.9731 35.3551 40.9731 34.6367C40.9731 33.9183 40.3954 33.3342 39.685 33.3342ZM27.0489 28.7735H23.3737C22.8847 28.7735 22.4882 28.3726 22.4882 27.8781V24.2727C22.4882 23.7782 22.8847 23.3772 23.3737 23.3772C23.8627 23.3772 24.2592 23.7782 24.2592 24.2727V26.9826H26.1634V24.2727C26.1634 23.7782 26.5599 23.3772 27.0489 23.3772C27.5379 23.3772 27.9344 23.7782 27.9344 24.2727V27.8781C27.9344 28.3726 27.5379 28.7735 27.0489 28.7735Z" fill="#5AB5FF"/>
<path d="M33.1942 25.0995H27.0489C26.5599 25.0995 26.1634 24.6985 26.1634 24.204C26.1634 23.7095 26.5599 23.3086 27.0489 23.3086H32.3087V21.3835H17.8039V23.3086H23.3737C23.8628 23.3086 24.2592 23.7095 24.2592 24.204C24.2592 24.6985 23.8628 25.0995 23.3737 25.0995H16.9184C16.4294 25.0995 16.0329 24.6985 16.0329 24.204V20.488C16.0329 19.9935 16.4294 19.5926 16.9184 19.5926H33.1942C33.6833 19.5926 34.0797 19.9935 34.0797 20.488V24.204C34.0797 24.6985 33.6833 25.0995 33.1942 25.0995Z" fill="#5AB5FF"/>
<path d="M33.9025 23.2413C33.4135 23.2413 33.017 22.8403 33.017 22.3458C33.017 21.8513 33.4135 21.4504 33.9025 21.4504C37.0151 21.4504 39.5475 18.8895 39.5475 15.7419V8.44854H37.0934C36.6044 8.44854 36.2079 8.0476 36.2079 7.5531C36.2079 7.05859 36.6044 6.65765 37.0934 6.65765H40.433C40.9221 6.65765 41.3185 7.05859 41.3185 7.5531V15.7419C41.3185 19.8772 37.9919 23.2413 33.9025 23.2413Z" fill="black"/>
<path d="M34.0983 11.1029C32.262 11.1029 30.7677 9.59187 30.7677 7.73497C30.7677 5.87806 32.262 4.367 34.0983 4.367C35.9346 4.367 37.4289 5.87806 37.4289 7.73497C37.4289 9.59187 35.9346 11.1029 34.0983 11.1029ZM34.0983 6.15789C33.2383 6.15789 32.5387 6.86532 32.5387 7.73497C32.5387 8.60461 33.2383 9.31205 34.0983 9.31205C34.9583 9.31205 35.6579 8.60461 35.6579 7.73497C35.6579 6.86532 34.9583 6.15789 34.0983 6.15789ZM16.1072 11.1029C14.271 11.1029 12.7767 9.59187 12.7767 7.73497C12.7767 5.87806 14.271 4.367 16.1072 4.367C17.9435 4.367 19.4378 5.87806 19.4378 7.73497C19.4378 9.59187 17.9435 11.1029 16.1072 11.1029ZM16.1072 6.15789C15.2473 6.15789 14.5477 6.86532 14.5477 7.73497C14.5477 8.60461 15.2473 9.31205 16.1072 9.31205C16.9672 9.31205 17.6668 8.60461 17.6668 7.73497C17.6668 6.86532 16.9672 6.15789 16.1072 6.15789Z" fill="#5AB5FF"/>
<path d="M16.8388 23.2413C12.7494 23.2413 9.42273 19.8772 9.42273 15.7419V7.5531C9.42273 7.05859 9.81922 6.65765 10.3082 6.65765H13.6479C14.1369 6.65765 14.5334 7.05859 14.5334 7.5531C14.5334 8.0476 14.1369 8.44854 13.6479 8.44854H11.1937V15.7419C11.1937 18.8895 13.7261 21.4504 16.8388 21.4504C17.3278 21.4504 17.7243 21.8513 17.7243 22.3458C17.7243 22.8403 17.3278 23.2413 16.8388 23.2413Z" fill="black"/>
<path d="M50.9894 40.5L192 39" stroke="#5AB5FF" stroke-width="2" stroke-linecap="round"/>
<path d="M59.5455 32H52.152V10.1818H59.6946C61.8608 10.1818 63.7216 10.6186 65.277 11.4922C66.8395 12.3587 68.0398 13.6051 68.8778 15.2315C69.7159 16.858 70.1349 18.804 70.1349 21.0696C70.1349 23.3423 69.7124 25.2955 68.8672 26.929C68.0291 28.5625 66.8182 29.8161 65.2344 30.6896C63.6577 31.5632 61.7614 32 59.5455 32ZM56.1044 28.5803H59.3537C60.8736 28.5803 62.1413 28.3033 63.157 27.7493C64.1726 27.1882 64.9361 26.3537 65.4474 25.2457C65.9588 24.1307 66.2145 22.7386 66.2145 21.0696C66.2145 19.4006 65.9588 18.0156 65.4474 16.9148C64.9361 15.8068 64.1797 14.9794 63.1783 14.4325C62.1839 13.8786 60.9482 13.6016 59.4709 13.6016H56.1044V28.5803ZM80.9641 32.3196C79.3235 32.3196 77.9066 31.9787 76.7134 31.2969C75.5273 30.608 74.6147 29.6349 73.9755 28.3778C73.3363 27.1136 73.0167 25.6257 73.0167 23.9141C73.0167 22.2308 73.3363 20.7536 73.9755 19.4822C74.6218 18.2038 75.5238 17.2095 76.6815 16.4993C77.8391 15.782 79.1992 15.4233 80.7617 15.4233C81.7702 15.4233 82.7219 15.5866 83.6168 15.9134C84.5188 16.233 85.3143 16.7301 86.0032 17.4048C86.6992 18.0795 87.2461 18.9389 87.6438 19.983C88.0415 21.0199 88.2404 22.2557 88.2404 23.6903V24.8729H74.8278V22.2734H84.5437C84.5366 21.5348 84.3768 20.8778 84.0643 20.3026C83.7518 19.7202 83.315 19.2621 82.7539 18.9283C82.1999 18.5945 81.5536 18.4276 80.815 18.4276C80.0266 18.4276 79.3342 18.6193 78.7376 19.0028C78.141 19.3793 77.6758 19.8764 77.342 20.4943C77.0153 21.1051 76.8484 21.7763 76.8413 22.5078V24.777C76.8413 25.7287 77.0153 26.5455 77.3633 27.2273C77.7113 27.902 78.1978 28.4205 78.8228 28.7827C79.4478 29.1378 80.1793 29.3153 81.0174 29.3153C81.5785 29.3153 82.0863 29.2372 82.5408 29.081C82.9954 28.9176 83.3896 28.6797 83.7234 28.3672C84.0572 28.0547 84.3093 27.6676 84.4798 27.206L88.0806 27.6108C87.8533 28.5625 87.4201 29.3935 86.7809 30.1037C86.1488 30.8068 85.3391 31.3537 84.3519 31.7443C83.3647 32.1278 82.2354 32.3196 80.9641 32.3196ZM99.6742 15.6364V18.6193H90.2672V15.6364H99.6742ZM92.5897 11.7159H96.4462V27.0781C96.4462 27.5966 96.5243 27.9943 96.6806 28.2713C96.8439 28.5412 97.057 28.7259 97.3198 28.8253C97.5826 28.9247 97.8738 28.9744 98.1934 28.9744C98.4348 28.9744 98.655 28.9567 98.8539 28.9212C99.0598 28.8857 99.2161 28.8537 99.3226 28.8253L99.9725 31.8402C99.7665 31.9112 99.4718 31.9893 99.0882 32.0746C98.7118 32.1598 98.2502 32.2095 97.7033 32.2237C96.7374 32.2521 95.8674 32.1065 95.0932 31.7869C94.3191 31.4602 93.7047 30.956 93.2502 30.2741C92.8027 29.5923 92.5826 28.7401 92.5897 27.7173V11.7159ZM109.968 32.3196C108.327 32.3196 106.911 31.9787 105.717 31.2969C104.531 30.608 103.619 29.6349 102.979 28.3778C102.34 27.1136 102.021 25.6257 102.021 23.9141C102.021 22.2308 102.34 20.7536 102.979 19.4822C103.626 18.2038 104.528 17.2095 105.685 16.4993C106.843 15.782 108.203 15.4233 109.766 15.4233C110.774 15.4233 111.726 15.5866 112.621 15.9134C113.523 16.233 114.318 16.7301 115.007 17.4048C115.703 18.0795 116.25 18.9389 116.648 19.983C117.045 21.0199 117.244 22.2557 117.244 23.6903V24.8729H103.832V22.2734H113.548C113.54 21.5348 113.381 20.8778 113.068 20.3026C112.756 19.7202 112.319 19.2621 111.758 18.9283C111.204 18.5945 110.558 18.4276 109.819 18.4276C109.031 18.4276 108.338 18.6193 107.741 19.0028C107.145 19.3793 106.68 19.8764 106.346 20.4943C106.019 21.1051 105.852 21.7763 105.845 22.5078V24.777C105.845 25.7287 106.019 26.5455 106.367 27.2273C106.715 27.902 107.202 28.4205 107.827 28.7827C108.452 29.1378 109.183 29.3153 110.021 29.3153C110.582 29.3153 111.09 29.2372 111.545 29.081C111.999 28.9176 112.393 28.6797 112.727 28.3672C113.061 28.0547 113.313 27.6676 113.484 27.206L117.085 27.6108C116.857 28.5625 116.424 29.3935 115.785 30.1037C115.153 30.8068 114.343 31.3537 113.356 31.7443C112.369 32.1278 111.239 32.3196 109.968 32.3196ZM127.645 32.3196C126.011 32.3196 124.608 31.9609 123.437 31.2436C122.272 30.5263 121.373 29.5355 120.741 28.2713C120.116 27 119.804 25.5369 119.804 23.8821C119.804 22.2202 120.123 20.7536 120.763 19.4822C121.402 18.2038 122.304 17.2095 123.469 16.4993C124.64 15.782 126.025 15.4233 127.623 15.4233C128.952 15.4233 130.127 15.6683 131.15 16.1584C132.18 16.6413 133 17.3267 133.611 18.2145C134.221 19.0952 134.569 20.125 134.655 21.304H130.969C130.819 20.5156 130.464 19.8587 129.903 19.3331C129.349 18.8004 128.607 18.5341 127.677 18.5341C126.888 18.5341 126.196 18.7472 125.599 19.1733C125.003 19.5923 124.537 20.196 124.204 20.9844C123.877 21.7727 123.714 22.7173 123.714 23.8182C123.714 24.9332 123.877 25.892 124.204 26.6946C124.53 27.4901 124.988 28.1044 125.578 28.5376C126.175 28.9638 126.874 29.1768 127.677 29.1768C128.245 29.1768 128.753 29.0703 129.2 28.8572C129.655 28.6371 130.035 28.321 130.34 27.9091C130.645 27.4972 130.855 26.9964 130.969 26.407H134.655C134.562 27.5646 134.221 28.5909 133.632 29.4858C133.042 30.3736 132.24 31.0696 131.224 31.5739C130.209 32.071 129.015 32.3196 127.645 32.3196ZM145.993 15.6364V18.6193H136.586V15.6364H145.993ZM138.908 11.7159H142.765V27.0781C142.765 27.5966 142.843 27.9943 142.999 28.2713C143.162 28.5412 143.375 28.7259 143.638 28.8253C143.901 28.9247 144.192 28.9744 144.512 28.9744C144.753 28.9744 144.973 28.9567 145.172 28.9212C145.378 28.8857 145.534 28.8537 145.641 28.8253L146.291 31.8402C146.085 31.9112 145.79 31.9893 145.407 32.0746C145.03 32.1598 144.569 32.2095 144.022 32.2237C143.056 32.2521 142.186 32.1065 141.412 31.7869C140.637 31.4602 140.023 30.956 139.569 30.2741C139.121 29.5923 138.901 28.7401 138.908 27.7173V11.7159Z" fill="#0A2239"/>
<path d="M149.74 32V10.1818H163.717V13.495H153.692V19.4183H162.758V22.7315H153.692V32H149.74ZM171.004 10.1818V32H167.148V10.1818H171.004ZM185.4 25.1179V15.6364H189.256V32H185.517V29.0916H185.346C184.977 30.0078 184.37 30.7571 183.525 31.3395C182.686 31.9219 181.653 32.2131 180.424 32.2131C179.352 32.2131 178.404 31.9751 177.58 31.4993C176.763 31.0163 176.124 30.3168 175.662 29.4006C175.201 28.4773 174.97 27.3622 174.97 26.0554V15.6364H178.826V25.4588C178.826 26.4957 179.11 27.3196 179.679 27.9304C180.247 28.5412 180.993 28.8466 181.916 28.8466C182.484 28.8466 183.034 28.7081 183.567 28.4311C184.1 28.1541 184.537 27.7422 184.877 27.1953C185.225 26.6413 185.4 25.9489 185.4 25.1179Z" fill="#5AB5FF"/>
</svg>
